<svg width="24" height="25" viewBox="0 0 24 25" fill="none" xmlns="http://www.w3.org/2000/svg">
<path fill-rule="evenodd" clip-rule="evenodd" d="M4.79998 20.3V4.69999H4.49998C4.00292 4.69999 3.59998 4.29705 3.59998 3.79999C3.59998 3.30294 4.00292 2.89999 4.49998 2.89999H19.5C19.997 2.89999 20.4 3.30294 20.4 3.79999C20.4 4.29705 19.997 4.69999 19.5 4.69999H19.2V20.3H19.5C19.997 20.3 20.4 20.7029 20.4 21.2C20.4 21.6971 19.997 22.1 19.5 22.1H15.3C14.8029 22.1 14.4 21.6971 14.4 21.2V18.2C14.4 17.7029 13.997 17.3 13.5 17.3H10.5C10.0029 17.3 9.59998 17.7029 9.59998 18.2V21.2C9.59998 21.6971 9.19703 22.1 8.69998 22.1H4.49998C4.00292 22.1 3.59998 21.6971 3.59998 21.2C3.59998 20.7029 4.00292 20.3 4.49998 20.3H4.79998ZM8.39998 7.09999C8.39998 6.76862 8.6686 6.49999 8.99998 6.49999H10.2C10.5313 6.49999 10.8 6.76862 10.8 7.09999V8.29999C10.8 8.63136 10.5313 8.89999 10.2 8.89999H8.99998C8.6686 8.89999 8.39998 8.63136 8.39998 8.29999V7.09999ZM8.99998 11.3C8.6686 11.3 8.39998 11.5686 8.39998 11.9V13.1C8.39998 13.4314 8.6686 13.7 8.99998 13.7H10.2C10.5313 13.7 10.8 13.4314 10.8 13.1V11.9C10.8 11.5686 10.5313 11.3 10.2 11.3H8.99998ZM13.2 7.09999C13.2 6.76862 13.4686 6.49999 13.8 6.49999H15C15.3313 6.49999 15.6 6.76862 15.6 7.09999V8.29999C15.6 8.63136 15.3313 8.89999 15 8.89999H13.8C13.4686 8.89999 13.2 8.63136 13.2 8.29999V7.09999ZM13.8 11.3C13.4686 11.3 13.2 11.5686 13.2 11.9V13.1C13.2 13.4314 13.4686 13.7 13.8 13.7H15C15.3313 13.7 15.6 13.4314 15.6 13.1V11.9C15.6 11.5686 15.3313 11.3 15 11.3H13.8Z" fill="white"/>
</svg>
